<?xml version="1.0" encoding="UTF-8"?>
<svg xmlns="http://www.w3.org/2000/svg" width="1440" height="660" viewBox="0 0 1440 660" role="img" aria-labelledby="title desc">
  <title id="title">Pi Durable + Poppy + TYPO3</title>
  <desc id="desc">A durable agent. A verified interface. An editable answer.</desc>
  <rect width="1440" height="660" fill="#111827"></rect>
  <text x="64" y="94" fill="#fff" font-family="Arial,sans-serif" font-weight="700" font-size="44">Pi Durable + Poppy + TYPO3</text>
  <text x="64" y="147" fill="#cbd5e1" font-family="Arial,sans-serif" font-size="26">A durable agent. A verified interface. An editable answer.</text>
  <rect x="64" y="230" width="310" height="250" fill="#1e293b"></rect>
  <text x="88" y="285" fill="#a3e635" font-family="Arial,sans-serif" font-size="28">01</text>
  <text x="88" y="347" fill="#fff" font-family="Arial,sans-serif" font-weight="700" font-size="27">PI DURABLE</text>
  <text x="88" y="404" fill="#e2e8f0" font-family="Arial,sans-serif" font-size="20">Conversation + private state</text>
  <path d="M376 355h20m-8-8 8 8-8 8" stroke="#a3e635" stroke-width="3" fill="none"></path>
  <rect x="398" y="230" width="310" height="250" fill="#1e293b"></rect>
  <text x="422" y="285" fill="#a3e635" font-family="Arial,sans-serif" font-size="28">02</text>
  <text x="422" y="347" fill="#fff" font-family="Arial,sans-serif" font-weight="700" font-size="27">POPPY</text>
  <text x="422" y="404" fill="#e2e8f0" font-family="Arial,sans-serif" font-size="20">Discover + guest session</text>
  <path d="M710 355h20m-8-8 8 8-8 8" stroke="#a3e635" stroke-width="3" fill="none"></path>
  <rect x="732" y="230" width="310" height="250" fill="#1e293b"></rect>
  <text x="756" y="285" fill="#a3e635" font-family="Arial,sans-serif" font-size="28">03</text>
  <text x="756" y="347" fill="#fff" font-family="Arial,sans-serif" font-weight="700" font-size="27">TYPO3</text>
  <text x="756" y="404" fill="#e2e8f0" font-family="Arial,sans-serif" font-size="20">Published content records</text>
  <path d="M1044 355h20m-8-8 8 8-8 8" stroke="#a3e635" stroke-width="3" fill="none"></path>
  <rect x="1066" y="230" width="310" height="250" fill="#1e293b"></rect>
  <text x="1090" y="285" fill="#a3e635" font-family="Arial,sans-serif" font-size="28">04</text>
  <text x="1090" y="347" fill="#fff" font-family="Arial,sans-serif" font-weight="700" font-size="27">SOURCE</text>
  <text x="1090" y="404" fill="#e2e8f0" font-family="Arial,sans-serif" font-size="20">Answer + citation</text>
  <text x="64" y="576" fill="#cbd5e1" font-family="Arial,sans-serif" font-size="24">TYPO3 LAB / webconsulting</text>
</svg>
